<svg width="36" height="8" viewBox="0 0 36 8" fill="none" xmlns="http://www.w3.org/2000/svg">
<path d="M3.73761 5.5C4.70411 5.5 5.48761 4.7165 5.48761 3.75C5.48761 2.7835 4.70411 2 3.73761 2C2.77111 2 1.98761 2.7835 1.98761 3.75C1.98761 4.7165 2.77111 5.5 3.73761 5.5Z" stroke="#0A0A0A" stroke-width="3.5"/>
<path d="M17.7376 5.5C18.7041 5.5 19.4876 4.7165 19.4876 3.75C19.4876 2.7835 18.7041 2 17.7376 2C16.7711 2 15.9876 2.7835 15.9876 3.75C15.9876 4.7165 16.7711 5.5 17.7376 5.5Z" stroke="#0A0A0A" stroke-width="3.5"/>
<path d="M31.7376 5.5C32.7041 5.5 33.4876 4.7165 33.4876 3.75C33.4876 2.7835 32.7041 2 31.7376 2C30.7711 2 29.9876 2.7835 29.9876 3.75C29.9876 4.7165 30.7711 5.5 31.7376 5.5Z" stroke="#0A0A0A" stroke-width="3.5"/>
</svg>
