<svg width="22" height="21" viewBox="0 0 22 21" fill="none" xmlns="http://www.w3.org/2000/svg">
<path fill-rule="evenodd" clip-rule="evenodd" d="M7.03188 0.93275C8.05825 0.8855 8.3855 0.875 11 0.875C13.6145 0.875 13.9418 0.886375 14.9673 0.93275C15.9928 0.979125 16.6927 1.14275 17.3052 1.37988C17.9466 1.62225 18.5285 2.00112 19.0098 2.49112C19.4998 2.9715 19.8778 3.5525 20.1193 4.19475C20.3573 4.80725 20.52 5.50725 20.5672 6.531C20.6145 7.55912 20.625 7.88637 20.625 10.5C20.625 13.1145 20.6136 13.4417 20.5672 14.4681C20.5209 15.4919 20.3573 16.1919 20.1193 16.8044C19.8777 17.4467 19.4991 18.0287 19.0098 18.5098C18.5285 18.9998 17.9466 19.3778 17.3052 19.6193C16.6927 19.8573 15.9927 20.02 14.969 20.0672C13.9417 20.1145 13.6145 20.125 11 20.125C8.3855 20.125 8.05825 20.1136 7.03188 20.0672C6.00813 20.0209 5.30813 19.8573 4.69563 19.6193C4.05331 19.3777 3.47134 18.9991 2.99025 18.5098C2.50058 18.0291 2.12165 17.4474 1.87988 16.8052C1.64275 16.1927 1.48 15.4927 1.43275 14.469C1.3855 13.4409 1.375 13.1136 1.375 10.5C1.375 7.8855 1.38637 7.55825 1.43275 6.53275C1.47912 5.50725 1.64275 4.80725 1.87988 4.19475C2.12201 3.55257 2.50123 2.9709 2.99112 2.49025C3.47154 2.00069 4.05291 1.62176 4.69475 1.37988C5.30725 1.14275 6.00725 0.98 7.031 0.93275H7.03188ZM14.8894 2.66525C13.8744 2.61888 13.5699 2.60925 11 2.60925C8.43012 2.60925 8.12562 2.61888 7.11062 2.66525C6.17175 2.70812 5.6625 2.86475 5.323 2.99688C4.87413 3.17188 4.553 3.37925 4.21613 3.71613C3.89679 4.0268 3.65103 4.405 3.49688 4.823C3.36475 5.1625 3.20812 5.67175 3.16525 6.61062C3.11888 7.62562 3.10925 7.93012 3.10925 10.5C3.10925 13.0699 3.11888 13.3744 3.16525 14.3894C3.20812 15.3282 3.36475 15.8375 3.49688 16.177C3.65087 16.5944 3.89675 16.9732 4.21613 17.2839C4.52675 17.6033 4.90563 17.8491 5.323 18.0031C5.6625 18.1353 6.17175 18.2919 7.11062 18.3348C8.12562 18.3811 8.42925 18.3907 11 18.3907C13.5708 18.3907 13.8744 18.3811 14.8894 18.3348C15.8282 18.2919 16.3375 18.1353 16.677 18.0031C17.1259 17.8281 17.447 17.6208 17.7839 17.2839C18.1033 16.9732 18.3491 16.5944 18.5031 16.177C18.6353 15.8375 18.7919 15.3282 18.8348 14.3894C18.8811 13.3744 18.8907 13.0699 18.8907 10.5C18.8907 7.93012 18.8811 7.62562 18.8348 6.61062C18.7919 5.67175 18.6353 5.1625 18.5031 4.823C18.3281 4.37413 18.1208 4.053 17.7839 3.71613C17.4732 3.39681 17.095 3.15106 16.677 2.99688C16.3375 2.86475 15.8282 2.70812 14.8894 2.66525ZM9.77063 13.4671C10.4572 13.7529 11.2217 13.7915 11.9336 13.5763C12.6454 13.361 13.2605 12.9053 13.6737 12.287C14.0868 11.6686 14.2725 10.926 14.199 10.186C14.1255 9.44592 13.7974 8.75435 13.2706 8.22937C12.9348 7.89379 12.5288 7.63684 12.0818 7.477C11.6348 7.31717 11.1579 7.25844 10.6854 7.30504C10.213 7.35164 9.75676 7.50241 9.34958 7.74649C8.9424 7.99057 8.5944 8.3219 8.33064 8.71662C8.06688 9.11134 7.89392 9.55963 7.8242 10.0292C7.75449 10.4988 7.78976 10.978 7.92747 11.4323C8.06519 11.8866 8.30192 12.3048 8.62063 12.6566C8.93934 13.0085 9.3321 13.2853 9.77063 13.4671ZM7.50175 7.00175C7.96115 6.54235 8.50653 6.17794 9.10676 5.92932C9.70699 5.68069 10.3503 5.55273 11 5.55273C11.6497 5.55273 12.293 5.68069 12.8932 5.92932C13.4935 6.17794 14.0389 6.54235 14.4983 7.00175C14.9576 7.46115 15.3221 8.00653 15.5707 8.60676C15.8193 9.20699 15.9473 9.85032 15.9473 10.5C15.9473 11.1497 15.8193 11.793 15.5707 12.3932C15.3221 12.9935 14.9576 13.5389 14.4983 13.9983C13.5705 14.926 12.3121 15.4473 11 15.4473C9.6879 15.4473 8.42954 14.926 7.50175 13.9983C6.57396 13.0705 6.05273 11.8121 6.05273 10.5C6.05273 9.1879 6.57396 7.92954 7.50175 7.00175ZM17.0445 6.2895C17.1583 6.18211 17.2495 6.05297 17.3125 5.90973C17.3756 5.76648 17.4092 5.61205 17.4115 5.45556C17.4138 5.29908 17.3846 5.14373 17.3258 4.99871C17.267 4.85369 17.1796 4.72195 17.069 4.61128C16.9583 4.50062 16.8266 4.41329 16.6815 4.35445C16.5365 4.29562 16.3812 4.26648 16.2247 4.26876C16.0682 4.27104 15.9138 4.3047 15.7705 4.36773C15.6273 4.43077 15.4981 4.52191 15.3907 4.63575C15.1819 4.85715 15.0676 5.15123 15.072 5.45556C15.0764 5.7599 15.1993 6.05052 15.4145 6.26574C15.6297 6.48096 15.9204 6.60383 16.2247 6.60826C16.529 6.6127 16.8231 6.49835 17.0445 6.2895Z" fill="#D728AE"/>
</svg>
