<svg width="26" height="26" viewBox="0 0 26 26" fill="none" xmlns="http://www.w3.org/2000/svg">
<path d="M13.0829 3.24841H13.2275C14.5633 3.25329 21.3314 3.30204 23.1562 3.79279C23.7079 3.94256 24.2106 4.2345 24.6141 4.63943C25.0176 5.04435 25.3078 5.54809 25.4556 6.10029C25.6197 6.71779 25.7351 7.53516 25.8131 8.37854L25.8294 8.54754L25.8651 8.97004L25.8781 9.13904C25.9837 10.6243 25.9967 12.0153 25.9984 12.3192V12.441C25.9967 12.7563 25.9821 14.2415 25.8651 15.7885L25.8521 15.9592L25.8375 16.1282C25.7562 17.0577 25.636 17.9807 25.4556 18.6599C25.3082 19.2123 25.0182 19.7163 24.6147 20.1213C24.2111 20.5263 23.7081 20.8181 23.1562 20.9674C21.2712 21.4744 14.1066 21.5102 13.1137 21.5118H12.883C12.3809 21.5118 10.3041 21.502 8.12663 21.4273L7.85037 21.4175L7.709 21.411L7.43112 21.3997L7.15325 21.3883C5.3495 21.3087 3.63188 21.1803 2.8405 20.9658C2.2888 20.8166 1.78598 20.5251 1.38243 20.1204C0.978873 19.7157 0.688751 19.212 0.541125 18.6599C0.36075 17.9823 0.2405 17.0577 0.15925 16.1282L0.14625 15.9575L0.13325 15.7885C0.0530523 14.6874 0.00861228 13.584 0 12.48L0 12.2802C0.00325 11.9308 0.01625 10.7234 0.104 9.39091L0.115375 9.22354L0.12025 9.13904L0.13325 8.97004L0.169 8.54754L0.18525 8.37854C0.26325 7.53516 0.378625 6.71616 0.54275 6.10029C0.690127 5.54787 0.980139 5.04389 1.38371 4.6389C1.78728 4.2339 2.29023 3.94211 2.84212 3.79279C3.6335 3.58154 5.35112 3.45154 7.15487 3.37029L7.43112 3.35891L7.71062 3.34916L7.85037 3.34429L8.12825 3.33291C9.67478 3.28315 11.2219 3.25552 12.7692 3.25004H13.0829V3.24841ZM10.4 8.46466V16.2939L17.1551 12.3809L10.4 8.46466Z" fill="#D728AE"/>
</svg>
